<svg id="Capa_1" enable-background="new 0 0 512 512" height="512" viewBox="0 0 512 512" width="512" xmlns="http://www.w3.org/2000/svg"><circle cx="127.76" cy="134.424" fill="#8eafe2" r="71.004"/><circle cx="392.318" cy="117.652" fill="#6a96d7" r="71.004"/><path d="m416.498 297.096c48.258 0 87.443-38.843 87.996-86.97.566-49.244-38.745-89.033-87.992-89.035-9.005 0-17.692 1.356-25.873 3.87-4.735 1.456-9.787-1.027-11.36-5.724-17.923-53.514-68.46-92.077-128.007-92.077-58.743 0-108.719 37.529-127.264 89.919-1.517 4.287-5.942 6.812-10.393 5.88-5.166-1.081-10.498-1.711-15.953-1.842-48.424-1.164-89.582 38.495-90.145 86.93-.571 49.082 39.045 89.049 87.996 89.049z" fill="#8eafe2"/><path d="m203.689 210.637c-70.79-21.611-66.484-120.808 7.027-177.258-40.413 12.716-72.635 43.912-86.719 83.7-1.514 4.278-5.908 6.821-10.35 5.889-5.178-1.087-10.523-1.719-15.992-1.851-48.778-1.176-89.576 38.129-90.15 86.918-.577 49.088 39.041 89.061 87.996 89.061h160.499c-35.404-10.435-52.813-43.847-45.217-73.509 1.42-5.543-1.621-11.279-7.094-12.95z" fill="#6a96d7"/><ellipse cx="153.424" cy="202.239" fill="#fff" rx="37.849" ry="30.141"/><ellipse cx="358.576" cy="202.239" fill="#fff" rx="37.849" ry="30.141"/><ellipse cx="256" cy="179.08" fill="#4e5660" rx="30.515" ry="34.147"/><path d="m300.471 368.65h-27.996l29.988-81.201c3.656-9.899-3.669-20.412-14.221-20.412h-51.307c-10.944 0-20.729 6.818-24.521 17.084l-34.031 92.148c-3.307 8.955 3.319 18.466 12.865 18.466h29.797l-27.285 73.882c-4.364 11.817 10.116 21.507 19.375 12.966l96.634-89.138c9.179-8.466 3.188-23.795-9.298-23.795z" fill="#f7ef87"/><path d="m235.358 267.099c-10.298.62-19.337 7.253-22.945 17.023l-34.031 92.148c-3.307 8.955 3.319 18.466 12.865 18.466h29.797l-27.285 73.882c-4.364 11.817 10.116 21.506 19.375 12.965l63.084-58.19c-50.597-30.276-66.567-112.625-40.86-156.294z" fill="#efd176"/><path d="m136.421 407.977-20.747 20.746c-2.929 2.93-2.929 7.678 0 10.607 1.464 1.464 3.384 2.196 5.303 2.196s3.839-.732 5.303-2.196l20.747-20.746c2.929-2.93 2.929-7.678 0-10.607-2.928-2.928-7.677-2.928-10.606 0zm230.395 0-20.747 20.746c-2.929 2.929-2.929 7.678 0 10.606 1.464 1.465 3.384 2.197 5.303 2.197s3.839-.732 5.303-2.196l20.747-20.746c2.929-2.929 2.929-7.678 0-10.607-2.928-2.929-7.677-2.928-10.606 0zm-14.567-265.073c-4.142 0-7.5 3.357-7.5 7.5v16.245c0 4.143 3.358 7.5 7.5 7.5s7.5-3.357 7.5-7.5v-16.245c0-4.142-3.358-7.5-7.5-7.5zm-291.779 271.701-20.746 20.747c-2.929 2.93-2.929 7.678 0 10.607 1.464 1.464 3.384 2.196 5.303 2.196s3.839-.732 5.303-2.196l20.747-20.747c2.929-2.93 2.929-7.678 0-10.607-2.93-2.928-7.679-2.928-10.607 0zm62.588-43.832 20.747-20.746c2.929-2.93 2.929-7.678 0-10.607-2.928-2.928-7.677-2.928-10.606 0l-20.747 20.746c-2.929 2.93-2.929 7.678 0 10.607 1.464 1.464 3.384 2.196 5.303 2.196 1.919.001 3.839-.732 5.303-2.196zm-47.268-42.207-20.747 20.747c-2.929 2.93-2.929 7.678 0 10.607 1.464 1.464 3.384 2.196 5.303 2.196s3.839-.732 5.303-2.196l20.747-20.747c2.929-2.93 2.929-7.678 0-10.607-2.928-2.927-7.677-2.927-10.606 0zm301.399 4.524-20.747 20.746c-2.929 2.929-2.929 7.678 0 10.607 1.464 1.465 3.384 2.197 5.303 2.197s3.839-.732 5.303-2.196l20.747-20.746c2.929-2.929 2.929-7.678 0-10.607-2.928-2.93-7.677-2.929-10.606-.001zm107.313-191.23c-4.515-4.567-9.415-8.62-14.629-12.13 3.876-24.775-4.161-49.706-22.045-67.59-27.905-27.903-71.752-30.56-102.673-7.24-25.378-22.21-58.46-35.241-93.893-35.241-37.763 0-73.06 14.987-99.099 40.148-21.673-7.06-45.706-4.357-65.228 7.543-3.537 2.156-4.656 6.772-2.5 10.309 1.413 2.317 3.881 3.597 6.411 3.597 1.33 0 2.678-.354 3.896-1.097 13.776-8.397 30.337-11.133 45.985-7.896-10.122 12.416-18.256 26.65-23.8 42.312-.271.764-1.022 1.204-1.786 1.042-5.666-1.187-11.491-1.859-17.311-1.999-10.8-.269-21.391 1.313-31.434 4.591 1.406-5.344 3.475-10.503 6.2-15.275 2.054-3.597.804-8.178-2.793-10.232-3.598-2.054-8.179-.804-10.232 2.793-5.23 9.157-8.577 19.439-9.788 29.975-7.311 4.07-14.165 9.136-20.39 15.143-18.654 18.002-29.091 41.919-29.386 67.347-.299 25.733 9.493 49.979 27.572 68.269 18.082 18.294 42.205 28.368 67.924 28.368h101.353l-25.509 69.074c-2.402 6.506-1.47 13.787 2.495 19.478 3.964 5.69 10.471 9.087 17.406 9.087h19.033l-23.556 63.784c-3.182 8.617-.191 17.84 7.444 22.948 3.376 2.26 7.149 3.372 10.892 3.372 4.721 0 9.394-1.771 13.159-5.244l6.444-5.944c3.045-2.809 3.236-7.553.428-10.598-2.809-3.046-7.554-3.237-10.598-.428l-6.444 5.944c-2.346 2.164-4.655 1.022-5.54.431-.884-.591-2.82-2.29-1.714-5.285l27.285-73.882c.85-2.302.521-4.873-.882-6.886-1.402-2.013-3.701-3.213-6.154-3.213h-29.798c-2.062 0-3.92-.971-5.099-2.662s-1.445-3.771-.731-5.705l34.031-92.148c2.691-7.287 9.718-12.183 17.485-12.183h51.307c2.541 0 4.832 1.196 6.285 3.281 1.453 2.086 1.781 4.648.901 7.032l-29.988 81.2c-.85 2.302-.521 4.873.882 6.886 1.402 2.013 3.701 3.213 6.154 3.213h27.996c3.938 0 5.426 3.025 5.788 3.952.362.928 1.32 4.161-1.574 6.831l-64.435 59.436c-3.045 2.809-3.236 7.553-.428 10.598s7.553 3.236 10.598.428l64.436-59.436c6.468-5.967 8.578-15.119 5.375-23.316-3.203-8.196-10.959-13.492-19.759-13.492h-17.231l20.885-56.553h112.373c25.315 0 49.167-9.804 67.162-27.605 17.981-17.788 28.043-41.504 28.333-66.779.298-25.843-9.465-50.117-27.491-68.353zm-47.28-69.113c13.124 13.126 19.692 30.947 18.454 49.112-12.133-5.418-25.415-8.268-39.175-8.269-9.56 0-19.006 1.414-28.076 4.202-.881.268-1.779-.142-2.045-.938-6.535-19.511-16.997-36.869-30.328-51.327 24.882-17.377 59.156-14.792 81.17 7.22zm35.889 193.58c-15.168 15.006-35.274 23.27-56.613 23.27h-106.849c2.361-6.833 1.328-14.405-2.816-20.353-4.234-6.078-11.185-9.707-18.592-9.707h-51.307c-14.018 0-26.7 8.835-31.557 21.985l-2.982 8.074h-106.892c-21.68 0-42.014-8.492-57.256-23.912-15.239-15.418-23.493-35.856-23.241-57.551.248-21.386 9.057-41.531 24.804-56.727 5.984-5.774 12.648-10.518 19.782-14.162.37-.143.723-.317 1.063-.515 11.385-5.604 23.925-8.435 36.817-8.115 4.91.117 9.821.685 14.597 1.685 8.071 1.69 16.238-2.919 19-10.718 6.177-17.45 15.932-32.932 28.264-45.74.065-.063.128-.127.191-.193 23.552-24.357 56.442-38.989 91.739-38.989 33.5 0 64.635 13.034 87.787 35.002.066.079.125.162.195.239.357.396.746.742 1.16 1.044 14.137 13.814 25.172 31.023 31.754 50.674 2.872 8.575 11.955 13.191 20.675 10.512 7.642-2.349 15.605-3.54 23.669-3.54 14.727.001 28.792 3.877 41.055 11.12.18.114.366.219.558.318 5.674 3.414 10.953 7.554 15.721 12.378 15.186 15.361 23.411 35.83 23.16 57.634-.247 21.303-8.729 41.293-23.886 56.287zm-217.111-128.893c-20.961 0-38.015 18.683-38.015 41.646s17.054 41.646 38.015 41.646 38.015-18.683 38.015-41.646-17.053-41.646-38.015-41.646zm0 68.293c-12.69 0-23.015-11.953-23.015-26.646s10.325-26.646 23.015-26.646 23.015 11.953 23.015 26.646c0 14.692-10.324 26.646-23.015 26.646zm171.786 154.194 20.747-20.747c2.929-2.93 2.929-7.678 0-10.607-2.929-2.928-7.678-2.928-10.606 0l-20.747 20.747c-2.929 2.93-2.929 7.678 0 10.607 1.464 1.464 3.384 2.196 5.303 2.196s3.839-.732 5.303-2.196zm16.955 30.347-20.747 20.747c-2.929 2.93-2.929 7.678 0 10.607 1.464 1.464 3.384 2.196 5.303 2.196s3.839-.733 5.303-2.196l20.747-20.747c2.929-2.93 2.929-7.678 0-10.607-2.929-2.928-7.678-2.928-10.606 0zm-284.99-247.364c-4.142 0-7.5 3.357-7.5 7.5v16.245c0 4.143 3.358 7.5 7.5 7.5s7.5-3.357 7.5-7.5v-16.245c0-4.142-3.358-7.5-7.5-7.5z"/></svg>