<svg height="512pt" viewBox="0 -19 512 512" width="512pt" xmlns="http://www.w3.org/2000/svg"><path d="m460.917969 149.730469c24.070312 0 43.582031-19.511719 43.582031-43.582031 0-24.070313-19.511719-43.578126-43.582031-43.578126-7.152344 0-13.894531 1.734376-19.851563 4.785157-5.394531-33.921875-34.773437-59.855469-70.21875-59.855469-39.273437 0-71.113281 31.839844-71.113281 71.113281 0 39.277344 31.839844 71.117188 71.113281 71.117188zm0 0" fill="#57565c"/><path d="m467.828125 149.179688c-11.363281-27.570313-28.179687-52.886719-49.898437-74.609376-24.996094-24.992187-54.757813-43.480468-87.226563-54.652343-18.699219 12.8125-30.96875 34.320312-30.96875 58.695312 0 39.277344 31.839844 71.117188 71.113281 71.117188h90.074219c2.347656 0 4.65625-.191407 6.90625-.550781zm0 0" fill="#444346"/><path d="m455 236.5c0 109.90625-89.09375 199-199 199s-199-89.09375-199-199 89.09375-199 199-199 199 89.09375 199 199zm0 0" fill="#ffeb99"/><path d="m455 236.5c0 109.90625-89.09375 199-199 199s-199-89.09375-199-199 89.09375-199 199-199 199 89.09375 199 199zm0 0" fill="#ffeb99"/><path d="m273.875 150.675781c0 9.875-8.003906 17.878907-17.875 17.878907s-17.875-8.003907-17.875-17.878907c0-9.871093 8.003906-17.875 17.875-17.875s17.875 8.003907 17.875 17.875zm0 0" fill="#444346"/><g fill="#ffde55"><path d="m273.875 268.460938c-54.410156 0-98.519531 44.109374-98.519531 98.519531 0 22.113281 7.285156 42.523437 19.585937 58.960937 19.242188 6.199219 39.757813 9.558594 61.058594 9.558594 40.585938 0 78.328125-12.160156 109.800781-33.023438 4.253907-11.011718 6.59375-22.980468 6.59375-35.496093 0-54.410157-44.109375-98.519531-98.519531-98.519531zm0 0"/><path d="m363.265625 223.632812c0 29.78125 24.144531 53.925782 53.925781 53.925782 13.804688 0 26.394532-5.195313 35.929688-13.722656 1.230468-8.9375 1.878906-18.0625 1.878906-27.335938 0-20.261719-3.035156-39.8125-8.664062-58.234375-8.40625-5.410156-18.402344-8.5625-29.144532-8.5625-29.78125 0-53.925781 24.144531-53.925781 53.929687zm0 0"/><path d="m127 236.5c0-97.964844 70.785156-179.390625 164-195.929688-11.363281-2.015624-23.058594-3.070312-35-3.070312-109.90625 0-199 89.09375-199 199s89.09375 199 199 199c11.941406 0 23.636719-1.054688 35-3.070312-93.214844-16.539063-164-97.964844-164-195.929688zm0 0"/><path d="m96.988281 116.84375c-25.101562 33.304688-39.988281 74.738281-39.988281 119.65625 0 16.066406 1.917969 31.683594 5.511719 46.644531 4.367187.691407 8.839843 1.0625 13.402343 1.0625 46.945313 0 85-38.058593 85-85 0-39.671875-27.175781-72.988281-63.925781-82.363281zm0 0"/></g><path d="m127 236.5c0-30.488281 6.863281-59.367188 19.121094-85.195312-11.492188-16.808594-28.847656-29.285157-49.132813-34.460938-25.101562 33.304688-39.988281 74.738281-39.988281 119.65625 0 16.066406 1.917969 31.683594 5.511719 46.644531 4.367187.691407 8.839843 1.0625 13.402343 1.0625 20.140626 0 38.628907-7.019531 53.195313-18.722656-1.382813-9.464844-2.109375-19.136719-2.109375-28.984375zm0 0" fill="#ffcd00"/><path d="m254.90625 465.5c32.820312 0 59.421875-26.601562 59.421875-59.421875 0-32.816406-26.601563-59.417969-59.421875-59.417969-6.988281 0-13.6875 1.214844-19.917969 3.433594-12.871093-28.054688-41.1875-47.550781-74.074219-47.550781-32.886718 0-61.203124 19.492187-74.074218 47.550781-6.230469-2.21875-12.929688-3.433594-19.917969-3.433594-32.820313 0-59.421875 26.601563-59.421875 59.417969 0 32.820313 26.601562 59.421875 59.421875 59.421875zm0 0" fill="#57565c"/><path d="m117.5 384.019531c0-38.449219 26.640625-70.65625 62.464844-79.222656-6.113282-1.46875-12.488282-2.253906-19.050782-2.253906-32.886718 0-61.203124 19.492187-74.074218 47.550781-6.230469-2.21875-12.929688-3.433594-19.917969-3.433594-32.820313 0-59.421875 26.605469-59.421875 59.417969 0 32.816406 26.601562 59.421875 59.421875 59.421875h132.058594c-45 0-81.480469-36.480469-81.480469-81.480469zm0 0" fill="#444346"/><path d="m325.367188 166.242188h-11.355469c-4.144531 0-7.5-3.359376-7.5-7.5 0-4.144532 3.355469-7.5 7.5-7.5h11.355469c4.144531 0 7.5 3.355468 7.5 7.5 0 4.140624-3.355469 7.5-7.5 7.5zm0 0" fill="#f46262"/><path d="m197.988281 166.242188h-11.355469c-4.144531 0-7.5-3.359376-7.5-7.5 0-4.144532 3.355469-7.5 7.5-7.5h11.355469c4.144531 0 7.5 3.355468 7.5 7.5 0 4.140624-3.355469 7.5-7.5 7.5zm0 0" fill="#f46262"/><path d="m512 106.148438c0-28.167969-22.914062-51.082032-51.082031-51.082032-4.957031 0-9.785157.695313-14.4375 2.070313-4.179688-14.714844-12.632813-28.011719-24.359375-38.113281-14.242188-12.265626-32.453125-19.023438-51.273438-19.023438-26.699218 0-51.546875 13.628906-65.980468 35.871094-15.886719-3.867188-32.28125-5.871094-48.867188-5.871094-66.898438 0-126.457031 31.984375-164.21875 81.457031-.539062.519531-1.003906 1.121094-1.371094 1.796875-25.6875 34.425782-40.910156 77.089844-40.910156 123.246094 0 36.550781 9.570312 72.105469 27.757812 103.460938-3.40625-.53125-6.859374-.800782-10.335937-.800782-36.902344 0-66.921875 30.019532-66.921875 66.917969 0 36.902344 30.019531 66.921875 66.921875 66.921875h143.203125c4.140625 0 7.5-3.355469 7.5-7.5s-3.359375-7.5-7.5-7.5h-143.203125c-28.632813 0-51.921875-23.289062-51.921875-51.921875 0-28.628906 23.289062-51.917969 51.921875-51.917969 5.957031 0 11.8125 1.007813 17.402344 2.996094 3.660156 1.304688 7.710937-.402344 9.332031-3.9375 12.035156-26.226562 38.433594-43.175781 67.257812-43.175781 28.824219 0 55.222657 16.945312 67.257813 43.175781 1.621094 3.535156 5.671875 5.238281 9.332031 3.9375 5.59375-1.988281 11.445313-2.996094 17.402344-2.996094 28.628906 0 51.921875 23.289063 51.921875 51.917969 0 28.632813-23.292969 51.921875-51.921875 51.921875h-16.78125c-4.144531 0-7.5 3.355469-7.5 7.5s3.355469 7.5 7.5 7.5h16.78125c26.835938 0 50.019531-15.886719 60.679688-38.738281 18.984374-5.722657 37.09375-14.242188 53.667968-25.144531.484375-.25.9375-.554688 1.359375-.910157 18.851563-12.605469 35.683594-28.285156 49.53125-46.394531 27.707031-36.242188 42.355469-79.574219 42.355469-125.3125 0-20.386719-3.015625-40.488281-8.816406-59.699219-.105469-.527343-.261719-1.042969-.476563-1.535156-1.898437-6.113281-4.074219-12.128906-6.53125-18.035156h14.242188c28.167969 0 51.082031-22.917969 51.082031-51.082031zm-447.5 130.351562c0-41.324219 13.160156-79.632812 35.507812-110.960938 31.683594 10.320313 53.40625 39.910157 53.40625 73.667969 0 42.730469-34.765624 77.5-77.5 77.5-2.402343 0-4.824218-.128906-7.246093-.355469-2.757813-13.011718-4.167969-26.359374-4.167969-39.851562zm295.121094 161.003906c-11.976563 7.757813-24.914063 14.226563-38.640625 19.183594.550781-3.457031.847656-7 .847656-10.609375 0-36.898437-30.019531-66.917969-66.921875-66.917969-5.4375 0-10.816406.652344-16.054688 1.945313-7.933593-14.378907-19.613281-26.066407-33.457031-34.074219 17.195313-19.582031 42.25-31.070312 68.480469-31.070312 50.1875 0 91.019531 40.832031 91.019531 91.019531 0 10.488281-1.789062 20.742187-5.273437 30.523437zm87.878906-161.003906c0 7.921875-.496094 15.761719-1.460938 23.488281-8.191406 6.507813-18.328124 10.070313-28.847656 10.070313-25.597656 0-46.425781-20.828125-46.425781-46.429688 0-25.597656 20.828125-46.425781 46.425781-46.425781 8 0 15.796875 2.054687 22.722656 5.953125 4.988282 17.203125 7.585938 35.148438 7.585938 53.34375zm-7.769531-94.269531c-7.53125-14.675781-16.832031-28.496094-27.804688-41.121094-2.714843-3.125-7.453125-3.457031-10.578125-.742187-3.128906 2.71875-3.460937 7.453124-.742187 10.582031 13.910156 16.007812 24.9375 34.085937 32.796875 53.4375-5.246094-1.4375-10.691406-2.183594-16.207032-2.183594-33.871093 0-61.429687 27.558594-61.429687 61.429687 0 33.871094 27.558594 61.425782 61.429687 61.425782 8.828126 0 17.453126-1.90625 25.347657-5.488282-9.511719 40.8125-32.238281 77.316407-63.949219 103.917969.847656-5.433593 1.300781-10.9375 1.300781-16.507812 0-58.457031-47.558593-106.019531-106.019531-106.019531-32 0-62.488281 14.683593-82.535156 39.492187-9.601563-3.511719-19.875-5.410156-30.425782-5.410156-28.421874 0-54.886718 13.699219-71.472656 36.019531-7.117187-12.511719-12.761718-25.730469-16.871094-39.421875 1.117188.039063 2.230469.066406 3.34375.066406 51.003907 0 92.5-41.496093 92.5-92.5 0-38.472656-23.640624-72.421875-58.707031-86.132812 35.15625-41.601563 87.6875-68.074219 146.292969-68.074219 46.015625 0 90.496094 16.5625 125.246094 46.628906 3.132812 2.710938 7.867187 2.371094 10.578125-.761718 2.710937-3.132813 2.367187-7.871094-.765625-10.582032-20.890625-18.078125-45.046875-31.621094-70.929688-40.074218 11.9375-15.730469 30.6875-25.210938 50.71875-25.210938 31.460938 0 57.878906 22.515625 62.8125 53.535156.378906 2.371094 1.871094 4.421875 4.015625 5.511719 2.144531 1.085937 4.679688 1.082031 6.816407-.019531 5.125-2.625 10.648437-3.960938 16.425781-3.960938 19.898437 0 36.082031 16.1875 36.082031 36.082032 0 19.894531-16.1875 36.082031-36.082031 36.082031zm0 0"/><path d="m256 125.300781c-13.992188 0-25.375 11.382813-25.375 25.375 0 13.992188 11.382812 25.378907 25.375 25.378907s25.375-11.386719 25.375-25.378907c0-13.992187-11.382812-25.375-25.375-25.375zm0 35.753907c-5.722656 0-10.375-4.65625-10.375-10.378907 0-5.722656 4.652344-10.375 10.375-10.375s10.375 4.652344 10.375 10.375c0 5.722657-4.652344 10.378907-10.375 10.378907zm0 0"/><path d="m319.6875 118.421875c-4.140625 0-7.5 3.355469-7.5 7.5v11.351563c0 4.144531 3.359375 7.5 7.5 7.5 4.144531 0 7.5-3.355469 7.5-7.5v-11.351563c0-4.144531-3.355469-7.5-7.5-7.5zm0 0"/><path d="m192.3125 118.421875c-4.144531 0-7.5 3.355469-7.5 7.5v11.351563c0 4.144531 3.355469 7.5 7.5 7.5 4.140625 0 7.5-3.355469 7.5-7.5v-11.351563c0-4.144531-3.359375-7.5-7.5-7.5zm0 0"/></svg>