<svg height="512pt" viewBox="0 0 512 511" width="512pt" xmlns="http://www.w3.org/2000/svg"><path d="m284.914062 433.5 19.195313-22.464844c30.304687-35.46875 49.304687-79.195312 54.554687-125.554687.707032-6.242188-1.5625-12.453125-6.128906-16.765625l-91.636718-86.59375c-2.761719-2.609375-2.902344-6.964844-.308594-9.746094l6.023437-6.472656c2.132813-2.285156 5.535157-2.863282 8.296875-1.402344l94.203125 49.75 4.855469-88.878906c.269531-4.984375 6.332031-7.273438 9.832031-3.710938l22.144531 22.5625c2.015626 2.050782 5.238282 2.296875 7.539063.574219l8.46875-6.339844c3.734375-2.796875 9.066406-.210937 9.179687 4.453125l2.796876 111.769532 64.679687-31.402344c2.722656-1.320313 5.890625.660156 5.890625 3.6875v12.253906c0 1.273438-.59375 2.476562-1.601562 3.253906l-59.316407 45.535156c-5.289062 4.058594-8.203125 10.488282-7.769531 17.140626l2.34375 36.140624c.917969 14.113282 4.507812 27.917969 10.578125 40.6875l24.503906 51.527344h-188.324219zm0 0" fill="#a05e44"/><path d="m498.609375 223.277344-64.679687 31.402344-2.796876-111.769532c-.117187-4.664062-5.449218-7.25-9.183593-4.453125l-8.464844 6.339844c-2.300781 1.722656-5.523437 1.476563-7.539063-.574219l-15.546874 182.675782c-3.070313 36.070312 3.503906 72.304687 19.050781 104.996093l.761719 1.605469h63.023437l-24.5-51.523438c-6.074219-12.769531-9.664063-26.578124-10.578125-40.6875l-2.347656-36.140624c-.429688-6.652344 2.484375-13.082032 7.769531-17.140626l59.316406-45.539062c1.011719-.773438 1.605469-1.976562 1.605469-3.25v-12.253906c0-3.027344-3.167969-5.007813-5.890625-3.6875zm0 0" fill="#8c4d34"/><path d="m484.671875 419.589844h-457.535156c-10.847657 0-19.636719 8.792968-19.636719 19.636718v58.65625c0 3.855469 3.125 6.980469 6.976562 6.980469h482.84375c1.515626 0 2.910157-.488281 4.050782-1.304687 1.773437-1.265625 2.929687-3.332032 2.929687-5.675782l.007813-58.65625c0-10.84375-8.792969-19.636718-19.636719-19.636718zm0 0" fill="#af6223"/><path d="m88.644531 456.34375 77.03125 16.007812 79.027344-52.761718h-180.066406zm0 0" fill="#c1752f"/><path d="m165.675781 472.351562-5.914062 32.511719h-145.285157c-3.851562 0-6.976562-3.125-6.976562-6.976562v-36.160157l81.144531-5.382812zm0 0" fill="#d8823a"/><path d="m110.742188 11.027344c5.390624 23.859375 34.339843 33.261718 52.722656 17.128906 3.105468-2.726562 7.757812.652344 6.121094 4.449219-9.664063 22.46875 8.230468 47.09375 32.585937 44.847656 4.117187-.382813 5.890625 5.085937 2.335937 7.199219-21.023437 12.496094-21.023437 42.933594 0 55.433594 3.554688 2.109374 1.78125 7.578124-2.335937 7.195312-24.355469-2.246094-42.25 22.378906-32.585937 44.847656 1.636718 3.800782-3.015626 7.175782-6.121094 4.449219-18.382813-16.132813-47.332032-6.726563-52.722656 17.128906-.910157 4.035157-6.65625 4.035157-7.566407 0-5.390625-23.855469-34.339843-33.261719-52.722656-17.128906-3.105469 2.726563-7.757813-.648437-6.125-4.449219 9.664063-22.46875-8.226563-47.09375-32.582031-44.847656-4.117188.382812-5.894532-5.085938-2.339844-7.195312 21.027344-12.5 21.027344-42.9375 0-55.433594-3.554688-2.113282-1.777344-7.582032 2.339844-7.199219 24.355468 2.246094 42.246094-22.378906 32.582031-44.847656-1.632813-3.796875 3.019531-7.175781 6.125-4.449219 18.382813 16.132812 47.332031 6.730469 52.722656-17.128906.910157-4.035156 6.65625-4.035156 7.566407 0zm0 0" fill="#fd8f31"/><path d="m204.507812 140.085938c-21.023437-12.5-21.023437-42.9375 0-55.433594 3.554688-2.113282 1.777344-7.582032-2.339843-7.199219-24.355469 2.246094-42.246094-22.378906-32.582031-44.847656 1.632812-3.796875-3.015626-7.175781-6.125-4.449219-18.382813 16.132812-47.332032 6.730469-52.71875-17.128906-.910157-4.035156-6.65625-4.035156-7.570313 0-1.171875 5.191406-3.460937 9.699218-6.515625 13.40625 28.820312 18.640625 53.085938 51.058594 53.085938 87.933594s-24.265626 69.292968-53.085938 87.933593c3.054688 3.710938 5.34375 8.214844 6.515625 13.410157.914063 4.03125 6.660156 4.03125 7.570313 0 5.386718-23.859376 34.335937-33.265626 52.71875-17.132813 3.109374 2.730469 7.757812-.648437 6.125-4.449219-9.664063-22.46875 8.226562-47.09375 32.582031-44.84375 4.117187.378906 5.894531-5.089844 2.339843-7.199218zm0 0" fill="#ff7f1f"/><path d="m149.742188 112.367188c0 23.632812-19.152344 42.785156-42.785157 42.785156-23.628906 0-42.785156-19.152344-42.785156-42.785156 0-23.628907 19.15625-42.785157 42.785156-42.785157 23.632813 0 42.785157 19.15625 42.785157 42.785157zm0 0" fill="#fccf3f"/><path d="m311.398438 419.589844h84.699218l8.003906 40.753906-36.339843 44.519531h-90.777344l37.117187-43.136719zm0 0" fill="#c1752f"/><path d="m497.324219 504.863281c1.511719 0 2.90625-.488281 4.050781-1.304687l-97.273438-43.214844-36.339843 44.519531zm0 0" fill="#d8823a"/><path d="m5.574219 133.636719c-10.386719 6.175781-5.203125 22.210937 6.863281 21.113281 18.679688-1.71875 32.425781 17.15625 25.003906 34.414062-4.78125 11.113282 8.871094 21.03125 17.960938 13.050782 14.09375-12.371094 36.316406-5.179688 40.457031 13.144531 2.664063 11.804687 19.535156 11.796875 22.199219 0 4.132812-18.292969 26.339844-25.539063 40.457031-13.144531 9.097656 7.984375 22.742187-1.941406 17.960937-13.050782-7.410156-17.226562 6.296876-36.136718 25.003907-34.414062 12.070312 1.097656 17.242187-14.941406 6.859375-21.113281-16.121094-9.582031-16.148438-32.941407 0-42.539063 10.390625-6.171875 5.207031-22.214844-6.859375-21.113281-18.675781 1.722656-32.425781-17.160156-25.003907-34.414063 4.78125-11.117187-8.871093-21.027343-17.960937-13.050781-14.097656 12.371094-36.316406 5.179688-40.457031-13.148437-2.019532-8.953125-11-8.835938-11.097656-8.871094-5.355469 0-9.921876 3.648438-11.101563 8.871094-4.140625 18.332031-26.367187 25.519531-40.457031 13.148437-9.097656-7.980469-22.742188 1.941407-17.960938 13.050781 7.410156 17.230469-6.296875 36.136719-25.003906 34.414063-12.054688-1.105469-17.253906 14.9375-6.863281 21.113281 7.578125 4.503906 12.101562 12.457032 12.101562 21.269532 0 8.816406-4.523437 16.765624-12.101562 21.269531zm15.792969-49.078125c21.195312-3.519532 35.902343-23.722656 32.691406-45 19.214844 9.613281 42.992187 1.914062 52.898437-17.1875 9.894531 19.070312 33.65625 26.8125 52.898438 17.1875-3.207031 21.246094 11.46875 41.476562 32.695312 45-15.082031 15.300781-15.105469 40.292968 0 55.621094-21.199219 3.515624-35.90625 23.71875-32.695312 44.996093-19.214844-9.613281-42.992188-1.910156-52.898438 17.1875-9.894531-19.074219-33.65625-26.8125-52.898437-17.1875 3.207031-21.242187-11.464844-41.476562-32.691406-45 7.207031-7.3125 11.308593-17.167969 11.308593-27.808593 0-10.640626-4.105469-20.5-11.308593-27.808594zm0 0"/><path d="m107.355469 161.671875c44.484375 0 67.277343-54.101563 35.558593-85.820313-14.730468-14.730468-37.375-18.847656-56.339843-10.246093-3.773438 1.710937-5.441407 6.15625-3.730469 9.925781 1.707031 3.773438 6.15625 5.445312 9.925781 3.734375 13.308594-6.035156 29.199219-3.144531 39.535157 7.191406 13.757812 13.757813 13.757812 36.144531 0 49.902344-13.757813 13.757813-36.144532 13.757813-49.902344 0-10.34375-10.347656-13.230469-26.242187-7.179688-39.558594 1.710938-3.769531.042969-8.214843-3.726562-9.929687-3.773438-1.714844-8.21875-.046875-9.933594 3.726562-14.882812 32.761719 8.773438 71.074219 45.792969 71.074219zm0 0"/><path d="m448.148438 293.957031 59.3125-45.535156c2.84375-2.179687 4.539062-5.621094 4.539062-9.203125v-12.253906c0-8.554688-8.953125-14.179688-16.667969-10.433594l-54.195312 26.3125-1.324219-52.902344 11.550781-14.558594c20.859375 1.414063 19.667969 1.355469 20.152344 1.355469 3.910156 0 7.207031-3.035156 7.476563-6.992187.28125-4.132813-2.84375-7.710938-6.976563-7.992188l-9.332031-.636718 21.304687-26.847657c2.574219-3.246093 2.03125-7.960937-1.214843-10.539062-3.242188-2.574219-7.960938-2.03125-10.535157 1.214843l-5.148437 6.492188-.257813-7.457031c-.140625-4.140625-3.613281-7.386719-7.75-7.238281-4.140625.140624-7.382812 3.609374-7.238281 7.75l.855469 25.078124c-4.449219 5.605469-8.46875 10.671876-13.472657 16.980469l-.59375-23.828125c-.269531-10.742187-12.570312-16.710937-21.175781-10.269531l-7.238281 5.417969-21.070312-21.464844c-8.070313-8.21875-22.046876-2.933594-22.671876 8.554688l-4.214843 77.1875-21.007813-11.09375-4.386718-40.796876c-.445313-4.121093-4.140626-7.105468-8.261719-6.65625-4.117188.441407-7.097657 4.140626-6.652344 8.257813l3.304687 30.75-46.84375-24.742187c-5.75-3.03125-12.859374-1.832032-17.289062 2.921874l-6.027344 6.472657c-5.382812 5.777343-5.089844 14.886719.648438 20.3125l15.933594 15.058593-37.265626 8.988282c-4.023437.972656-6.503906 5.023437-5.53125 9.050781.972657 4.027344 5.023438 6.503906 9.050782 5.53125l12.121094-2.921875-1.605469 13.957031c-.507813 4.445313 2.964843 8.355469 7.460937 8.355469 3.757813 0 7-2.820312 7.441406-6.644531l2.230469-19.414063 19.105469-4.609375 62.695312 59.238281c2.835938 2.679688 4.265626 6.597657 3.828126 10.476563-1.273438 11.210937-3.402344 22.417969-6.332032 33.308594-1.074218 4 1.296875 8.113281 5.296875 9.191406 4 1.074219 8.113281-1.296875 9.1875-5.296875 3.125-11.609375 5.398438-23.5625 6.75-35.515625.96875-8.539063-2.183593-17.164063-8.429687-23.0625-10.640625-10.054687-79.699219-75.3125-91.21875-86.199219l5.332031-5.722656 93.8125 49.539062c4.816406 2.546876 10.691406-.746093 10.988281-6.222656l4.636719-84.898437 19.355469 19.714843c4.625 4.714844 12.097656 5.285157 17.386718 1.328126l5.742188-4.300782c.351562 14.070313 2.503906 100.007813 2.710938 108.371094.136718 5.449219 5.871093 8.9375 10.773437 6.558594l59.796875-29.035156v5.144531l-57.988281 44.515625c-7.285157 5.59375-11.28125 14.40625-10.6875 23.574218l2.347656 36.144532c2.105469 32.445312 15.644531 50.164062 24.078125 70.3125-15.117188 0-87.039062 0-102.257812 0 25.117187-34 40.804687-73.824219 45.59375-116.085938.464843-4.117187-2.492188-7.832031-6.609376-8.296875-4.117187-.472656-7.828124 2.492188-8.292968 6.605469-4.917969 43.390625-22.078125 84.035156-49.679688 117.78125h-20.5c15.039063-18.355469 27.25-38.753906 36.332032-60.710938 1.582031-3.828124-.238282-8.210937-4.066407-9.796874-3.828125-1.582032-8.210937.238281-9.796875 4.066406-16.496094 39.882812-39.167968 62.453125-42.128906 66.4375-18.953125 0-254.816406 0-266.207031 0-14.964844 0-27.136719 12.175781-27.136719 27.136718v58.65625c0 7.984376 6.496094 14.480469 14.476562 14.480469h482.847657c8.035156 0 14.476562-6.625 14.476562-14.476562l.007813-58.660157c0-14.960937-12.175782-27.136718-27.136719-27.136718h-13.3125l-15.851563-33.332032c-12.699218-26.703124-9.289062-46.269531-12.210937-74.097656-.273437-4.164062 1.542969-8.164062 4.851563-10.703125zm-433.148438 145.269531c0-6.691406 5.445312-12.136718 12.136719-12.136718h33.441406l14.773437 22.621094-60.351562 4.003906zm138.503906 58.136719h-138.503906v-28.617187l73.121094-4.851563 68.867187 14.308594zm-60.285156-47.730469-14.726562-22.542968h141.46875l-55.839844 37.277344zm75.527344 47.730469 3.738281-20.542969 74.492187-49.730468h57.386719l2.058594 32.0625-32.878906 38.210937zm124.585937 0 26.453125-30.746093c1.28125-1.484376 1.925782-3.414063 1.800782-5.371094l-2.191407-34.15625h70.53125l6.136719 31.242187-31.859375 39.03125zm90.234375 0 22.722656-27.839843 62.660157 27.839843zm101.105469-70.273437c6.691406 0 12.132813 5.445312 12.132813 12.136718l-.003907 54.09375-86.09375-38.246093-5.492187-27.984375c69.828125.003906 56.800781.003906 79.457031 0zm0 0"/></svg>