<svg height="512pt" viewBox="-37 0 512 512.00096" width="512pt" xmlns="http://www.w3.org/2000/svg"><path d="m7.5 362.652344c0-72.636719 15.207031-120.949219 51.898438-182.421875 11.074218-18.546875 36.609374-21.101563 51.5-5.453125.171874.179687.34375.355468.519531.535156 14.445312 14.640625 38.242187 14.226562 52.609375-.492188 17.933594-18.371093 34.03125-52.109374 40.222656-92.855468 2.457031-16.179688 23.074219-21.726563 33.433594-9.058594 91.054687 111.34375 113.589844 203.195312 113.589844 289.746094 0 78.339844-76.957032 141.847656-171.886719 141.847656-94.929688 0-171.886719-63.507812-171.886719-141.847656zm0 0" fill="#eea849"/><path d="m179.398438 454.582031c-101.234376 0-162.875-96.578125-162.085938-178.582031-6.722656 26.242188-9.8125 53.984375-9.8125 86.652344 0 78.339844 76.957031 141.847656 171.886719 141.847656 94.929687 0 171.886719-63.507812 171.886719-141.847656 0-29.847656-2.679688-60.332032-9.929688-92.023438 3.617188 83.089844-58.488281 183.953125-161.945312 183.953125zm0 0" fill="#e9901b"/><path d="m251.828125 389.371094c-1.984375-36.910156-30.304687-86.421875-75.625-114.8125-8.859375-5.550782-20.472656-.5-22.773437 9.703125-11.617188 51.546875-46.574219 71.257812-46.574219 111.007812 0 40.269531 32.804687 72.878907 73.144531 72.5625 42.191406-.332031 74.089844-36.332031 71.828125-78.460937zm0 0" fill="#f7ef87"/><path d="m179.398438 454.582031c-19.015626 0-36.632813-3.40625-52.703126-9.488281 13.351563 14.125 32.300782 22.902344 53.308594 22.738281 20.605469-.160156 38.738282-8.847656 51.65625-22.582031-15.953125 5.972656-33.417968 9.332031-52.261718 9.332031zm0 0" fill="#efd176"/><path d="m27.851562 72.398438c1.53125-23.664063 14.886719-47.121094 42.578126-63.425782 5.863281-3.453125 13.523437-.519531 15.3125 6.046875 8.664062 31.828125 36.628906 36.0625 36.628906 62.011719 0 26.050781-21.042969 47.1875-47.058594 47.332031-27.835938.15625-49.257812-24.1875-47.460938-51.964843zm0 0" fill="#e9901b"/><path d="m431.476562 197.367188c-1.296874-20.082032-12.628906-39.984376-36.125-53.820313-4.976562-2.929687-11.476562-.441406-12.992187 5.132813-7.355469 27.003906-31.085937 30.597656-31.085937 52.617187 0 22.105469 17.859374 40.039063 39.933593 40.164063 23.617188.132812 41.796875-20.523438 40.269531-44.09375zm0 0" fill="#eea849"/><path d="m115.105469 380.753906c0-16.53125-16.832031-29.933594-37.589844-29.933594s-37.589844 13.402344-37.589844 29.933594 16.832031 29.933594 37.589844 29.933594 37.589844-13.402344 37.589844-29.933594zm0 0" fill="#fff"/><path d="m318.847656 380.753906c0-16.53125-16.832031-29.933594-37.589844-29.933594-20.757812 0-37.589843 13.402344-37.589843 29.933594s16.832031 29.933594 37.589843 29.933594c20.757813 0 37.589844-13.402344 37.589844-29.933594zm0 0" fill="#fff"/><path d="m209.691406 357.753906c0-18.726562-13.566406-33.910156-30.304687-33.910156s-30.304688 15.183594-30.304688 33.910156c0 18.730469 13.566407 33.914063 30.304688 33.914063s30.304687-15.183594 30.304687-33.914063zm0 0" fill="#4e5660"/><path d="m75.039062 131.863281h.3125c30.0625-.167969 54.519532-24.769531 54.519532-54.832031 0-16.425781-9.121094-25.769531-17.945313-34.804688-7.5-7.683593-15.257812-15.628906-18.949219-29.175781-1.453124-5.339843-5.246093-9.605469-10.402343-11.707031-5.253907-2.136719-11.066407-1.710938-15.953125 1.167969-27.996094 16.484375-44.421875 41.132812-46.253906 69.402343-1.019532 15.800782 4.578124 31.421876 15.359374 42.859376 10.394532 11.03125 24.347657 17.089843 39.3125 17.089843zm-39.703124-58.980469c1.5-23.160156 15.3125-43.5625 38.898437-57.449218 1.167969-.6875 2.265625-.367188 2.6875-.195313.566406.230469 1.300781.722657 1.582031 1.75 4.710938 17.304688 14.679688 27.511719 22.691406 35.71875 7.941407 8.128907 13.675782 14.003907 13.675782 24.320313 0 21.84375-17.765625 39.710937-39.601563 39.835937-10.890625.023438-21.046875-4.332031-28.628906-12.378906-7.9375-8.417969-12.058594-19.9375-11.304687-31.601563zm70.136718 107.070313c.195313.207031.394532.414063.605469.625 8.273437 8.386719 19.355469 13 31.226563 13h.125c12.132812-.03125 23.488281-4.835937 31.964843-13.519531 20.421875-20.921875 36.222657-57.167969 42.269531-96.96875.691407-4.546875 3.777344-7.996094 8.257813-9.222656 4.535156-1.242188 9.003906.171874 11.957031 3.785156 4.925782 6.023437 9.746094 12.113281 14.332032 18.101562 2.515624 3.289063 7.226562 3.914063 10.515624 1.398438 3.289063-2.519532 3.914063-7.226563 1.394532-10.515625-4.683594-6.117188-9.605469-12.332031-14.628906-18.476563-6.71875-8.214844-17.269532-11.570312-27.535157-8.757812-10.210937 2.796875-17.539062 11.011718-19.121093 21.4375-5.511719 36.257812-20.136719 70.261718-38.175782 88.742187-5.640625 5.78125-13.195312 8.976563-21.273437 8.996094-7.820313 0-15.179688-3.007813-20.621094-8.523437l-.433594-.445313c-8.808593-9.261719-21.089843-13.761719-33.695312-12.355469-12.429688 1.386719-23.246094 8.363282-29.675781 19.132813-38.609376 64.679687-52.960938 115.160156-52.960938 186.269531 0 37.582031 16.796875 73.484375 47.292969 101.089844 1.4375 1.300781 3.238281 1.941406 5.03125 1.941406 2.046875 0 4.082031-.832031 5.5625-2.46875 2.78125-3.070312 2.546875-7.8125-.527344-10.589844-27.316406-24.730468-42.359375-56.683594-42.359375-89.972656 0-68.964844 13.304688-115.695312 50.839844-178.578125 4.003906-6.710937 10.734375-11.054687 18.464844-11.917969 7.898437-.882812 15.613281 1.957032 21.167968 7.792969zm73.914063 136.390625c-20.847657 0-37.804688 18.578125-37.804688 41.410156 0 22.835938 16.957031 41.414063 37.804688 41.414063 20.84375 0 37.804687-18.578125 37.804687-41.414063 0-22.832031-16.957031-41.410156-37.804687-41.410156zm0 67.824219c-12.574219 0-22.804688-11.851563-22.804688-26.414063s10.230469-26.410156 22.804688-26.410156 22.804687 11.847656 22.804687 26.410156c0 14.566406-10.230468 26.414063-22.804687 26.414063zm-103.085938-54.890625v16.132812c0 4.144532 3.355469 7.5 7.5 7.5 4.140625 0 7.5-3.355468 7.5-7.5v-16.132812c0-4.144532-3.359375-7.5-7.5-7.5-4.144531 0-7.5 3.355468-7.5 7.5zm362.660157-132.394532c-1.578126-24.375-15.714844-45.613281-39.804688-59.796874-4.453125-2.625-9.753906-3.011719-14.539062-1.0625-4.707032 1.914062-8.167969 5.808593-9.496094 10.6875-3.050782 11.210937-9.53125 17.84375-15.796875 24.261718-7.644531 7.828125-15.550781 15.925782-15.550781 30.324219 0 26.132813 21.261718 47.515625 47.390624 47.664063h.273438c13.015625 0 25.148438-5.269532 34.1875-14.859376 9.363281-9.933593 14.222656-23.5 13.335938-37.21875zm-24.253907 26.929688c-6.171875 6.546875-14.429687 10.148438-23.273437 10.148438-.058594 0-.125 0-.183594-.003907-17.910156-.097656-32.476562-14.753906-32.476562-32.664062 0-7.921875 3.867187-12.25 11.28125-19.84375 6.890624-7.054688 15.464843-15.835938 19.539062-30.800781.035156-.128907.140625-.515626.675781-.734376.125-.050781.320313-.109374.550781-.109374.214844 0 .464844.050781.726563.203124 19.675781 11.585938 31.199219 28.578126 32.445313 47.839844.621093 9.585938-2.761719 19.050782-9.285157 25.964844zm-132.234375 121.597656v-16.136718c0-4.140626-3.355468-7.496094-7.5-7.496094-4.140625 0-7.5 3.355468-7.5 7.496094v16.136718c0 4.140625 3.359375 7.5 7.5 7.5 4.144532 0 7.5-3.355468 7.5-7.5zm-3.011718-229.257812c-2.328126-3.421875-6.996094-4.3125-10.417969-1.980469-3.425781 2.328125-4.3125 6.992187-1.984375 10.417969 53.054687 78.015625 76.714844 151.4375 76.714844 238.066406 0 74.078125-73.742188 134.34375-164.386719 134.34375-34.070313 0-66.753907-8.453125-94.523438-24.449219-3.589843-2.066406-8.171875-.832031-10.242187 2.753907-2.066406 3.589843-.832032 8.175781 2.753906 10.242187 30.042969 17.308594 65.316406 26.453125 102.011719 26.453125 47.648437 0 92.507812-15.363281 126.316406-43.261719 34.222656-28.242187 53.070313-65.914062 53.070313-106.082031 0-41.761719-5.308594-80.046875-16.226563-117.046875-12.871094-43.617187-33.507813-85.960937-63.085937-129.457031zm0 0"/></svg>