<svg height="512pt" viewBox="-2 0 512 512" width="512pt" xmlns="http://www.w3.org/2000/svg"><path d="m48.9375 33.019531h66.277344v126.601563h-66.277344zm0 0" fill="#b28a83"/><path d="m436.0625 305.964844h-365.007812v-142.046875l182.503906-115.621094 182.503906 109.011719zm0 0" fill="#b28a83"/><path d="m71.054688 163.917969v73.375c5.882812-1.113281 11.503906-3.390625 16.566406-6.742188l165.9375-109.941406 165.933594 109.941406c5.066406 3.351563 10.6875 5.628907 16.570312 6.742188v-79.984375l-182.503906-109.011719zm0 0" fill="#a07c75"/><path d="m474.378906 147.710938-201.664062-133.613282c-11.609375-7.695312-26.703125-7.695312-38.316406 0l-201.664063 133.613282c-7.027344 4.65625-8.953125 14.132812-4.292969 21.160156l21.449219 32.375c4.65625 7.027344 14.132813 8.953125 21.160156 4.292968l182.507813-120.917968 182.503906 120.917968c7.03125 4.660157 16.503906 2.734376 21.164062-4.292968l21.449219-32.375c4.65625-7.027344 2.734375-16.503906-4.296875-21.160156zm0 0" fill="#f4d7b9"/><path d="m48.9375 88.539062h66.277344v-55.519531h-66.277344zm0 0" fill="#a07c75"/><path d="m115.214844 7.5h-66.277344c-6.707031 0-12.148438 5.4375-12.148438 12.148438v26.742187c0 6.707031 5.441407 12.148437 12.148438 12.148437h66.277344c6.710937 0 12.148437-5.441406 12.148437-12.148437v-26.742187c0-6.710938-5.4375-12.148438-12.148437-12.148438zm0 0" fill="#f4d7b9"/><path d="m7.5 424.949219v79.550781h492.117188v-79.550781l-22.28125-39.777344h-424.78125zm0 0" fill="#8dcdd7"/><path d="m429.3125 265.84375c-22.460938 9.550781-47.839844 9.550781-70.300781 0-22.460938-9.546875-47.839844-9.546875-70.300781 0-22.460938 9.550781-47.84375 9.550781-70.304688 0-22.460938-9.546875-47.839844-9.546875-70.300781 0-22.460938 9.550781-47.839844 9.550781-70.300781 0-22.460938-9.546875-47.839844-9.546875-70.300782 0v79.550781l45.050782 39.777344h424.785156l22.277344-39.777344v-79.550781c-22.460938-9.546875-47.84375-9.546875-70.304688 0zm0 0" fill="#bbe8ee"/><path d="m7.5 424.949219c22.460938-9.550781 47.839844-9.550781 70.300781 0 22.460938 9.546875 47.84375 9.546875 70.304688 0 22.460937-9.550781 47.839843-9.550781 70.300781 0 22.460938 9.546875 47.839844 9.546875 70.300781 0 22.460938-9.550781 47.84375-9.550781 70.304688 0 22.460937 9.546875 47.839843 9.546875 70.300781 0 22.460938-9.550781 47.839844-9.550781 70.300781 0v-79.554688c-22.460937-9.546875-47.839843-9.546875-70.300781 0-22.460938 9.550781-47.839844 9.550781-70.300781 0-22.460938-9.546875-47.84375-9.546875-70.304688 0-22.460937 9.550781-47.839843 9.550781-70.300781 0-22.460938-9.546875-47.839844-9.546875-70.300781 0-22.460938 9.550781-47.84375 9.550781-70.304688 0-22.460937-9.546875-47.839843-9.546875-70.300781 0zm0 0" fill="#addfea"/><path d="m178.1875 225.988281c4.140625 0 7.5-3.359375 7.5-7.5v-13.640625c0-4.144531-3.359375-7.5-7.5-7.5s-7.5 3.355469-7.5 7.5v13.640625c0 4.140625 3.359375 7.5 7.5 7.5zm0 0"/><path d="m328.929688 225.988281c4.140624 0 7.5-3.359375 7.5-7.5v-13.640625c0-4.144531-3.359376-7.5-7.5-7.5-4.144532 0-7.5 3.355469-7.5 7.5v13.640625c0 4.140625 3.355468 7.5 7.5 7.5zm0 0"/><path d="m236.558594 229.96875c3.121094 2.726562 7.859375 2.410156 10.585937-.710938 1.539063-1.761718 3.875-2.769531 6.414063-2.769531 2.535156 0 4.875 1.007813 6.414062 2.769531 1.480469 1.695313 3.5625 2.566407 5.648438 2.566407 1.753906 0 3.511718-.609375 4.933594-1.855469 3.121093-2.726562 3.4375-7.460938.710937-10.582031-4.386719-5.019531-10.84375-7.898438-17.707031-7.898438-6.867188 0-13.320313 2.878907-17.707032 7.898438-2.730468 3.117187-2.410156 7.855469.707032 10.582031zm0 0"/><path d="m42.652344 251.183594c-13.160156 0-25.976563 2.609375-38.085938 7.757812-2.769531 1.175782-4.566406 3.894532-4.566406 6.902344v238.65625c0 4.140625 3.359375 7.5 7.5 7.5h492.117188c4.140624 0 7.5-3.359375 7.5-7.5v-238.65625c0-3.007812-1.796876-5.726562-4.566407-6.902344-12.113281-5.148437-24.925781-7.757812-38.085937-7.757812-7.085938 0-14.070313.761718-20.902344 2.265625v-37.890625c7.691406.300781 15.359375-3.296875 19.914062-10.167969l21.449219-32.375c6.933594-10.464844 4.0625-24.621094-6.40625-31.554687l-37.730469-25c-3.453124-2.289063-8.105468-1.34375-10.394531 2.109374-2.289062 3.453126-1.34375 8.105469 2.109375 10.394532 0 0 37.675782 24.960937 37.730469 25 3.539063 2.34375 4.53125 7.230468 2.1875 10.765625 0 0-21.425781 32.335937-21.449219 32.375-2.34375 3.539062-7.226562 4.53125-10.765625 2.183593 0 0-182.488281-120.90625-182.507812-120.917968-2.480469-1.648438-5.800781-1.644532-8.285157 0l-182.503906 120.917968c-3.570312 2.367188-8.402344 1.386719-10.769531-2.183593l-21.449219-32.375c-2.363281-3.570313-1.382812-8.402344 2.1875-10.769531l201.664063-133.613282c9.121093-6.042968 20.910156-6.042968 30.03125 0l138.445312 91.730469c3.453125 2.285156 8.105469 1.34375 10.394531-2.109375 2.289063-3.453125 1.34375-8.109375-2.109374-10.394531l-138.445313-91.730469c-14.15625-9.378906-32.445313-9.378906-46.601563 0l-107.542968 71.253906v-14.554687c7.121094-2.953125 12.148437-9.976563 12.148437-18.152344v-26.742187c0-10.835938-8.816406-19.648438-19.648437-19.648438h-24.066406c-4.144532 0-7.5 3.359375-7.5 7.5s3.355468 7.5 7.5 7.5h24.066406c2.5625 0 4.648437 2.085938 4.648437 4.648438v26.742187c0 2.5625-2.085937 4.648437-4.648437 4.648437h-66.277344c-2.5625 0-4.648438-2.085937-4.648438-4.648437v-26.742187c0-2.5625 2.085938-4.648438 4.648438-4.648438h12.300781c4.144531 0 7.5-3.359375 7.5-7.5s-3.355469-7.5-7.5-7.5h-12.300781c-10.832031 0-19.648438 8.8125-19.648438 19.648438v26.742187c0 8.175781 5.027344 15.199219 12.148438 18.152344v68.40625l-12.84375 8.511719c-10.464844 6.933593-13.339844 21.089843-6.40625 31.554687l21.449219 32.375c4.378906 6.605469 11.628906 10.183594 19.015625 10.183594.300781 0 .601562-.019531.898437-.03125v37.90625c-6.828125-1.503907-13.8125-2.265625-20.898437-2.265625zm65.0625-185.144532v22.996094l-51.277344 33.976563v-56.972657zm-89.429688 283.394532c18.445313-5.703125 38.792969-4.699219 56.582032 2.863281 24.117187 10.253906 52.050781 10.253906 76.171874 0 20.183594-8.578125 43.964844-8.699219 64.433594 0 24.148438 10.269531 52.03125 10.261719 76.171875 0 20.414063-8.679687 44.027344-8.675781 64.433594 0 24.160156 10.273437 52.015625 10.269531 76.167969 0 18.917968-8.039063 40.527344-8.679687 59.871094-1.769531v63.761718c-.125-.035156-.253907-.066406-.378907-.105468-21.417969-6.304688-44.832031-4.867188-65.359375 3.863281-20.351562 8.652344-44.078125 8.652344-64.433594 0-24.113281-10.25-52.0625-10.25-76.171874 0-20.445313 8.691406-43.992188 8.6875-64.433594 0-24.160156-10.273437-52.015625-10.269531-76.167969 0-20.351563 8.648437-44.089844 8.652344-64.4375 0-20.535156-8.734375-43.9375-10.15625-65.355469-3.863281-.125.039062-.253906.070312-.378906.105468v-63.761718c1.089844-.386719 2.183594-.75 3.285156-1.09375zm-3.285156 147.566406v-66.917969c11.472656-4.101562 23.820312-5.59375 35.941406-4.382812 8.222656.824219 16.242188 2.886719 23.925782 6.152343 24.070312 10.230469 52.105468 10.226563 76.171874 0 20.4375-8.6875 44.003907-8.6875 64.433594 0 24.167969 10.273438 52.003906 10.273438 76.171875 0 20.425781-8.683593 44.015625-8.679687 64.433594 0 24.160156 10.269532 52.015625 10.269532 76.171875 0 18.851562-8.015624 40.582031-8.660156 59.867188-1.769531v66.917969zm477.117188-226.039062v63.777343c-.128907-.039062-.257813-.070312-.386719-.109375-21.46875-6.242187-44.769531-4.882812-65.351563 3.863282-20.425781 8.683593-44.015625 8.683593-64.433594 0-24.101562-10.246094-52.078124-10.238282-76.171874 0-24.730469 10.515624-47.070313 5.601562-71.316407-2.625-22.480469-7.632813-47.449219-6.65625-69.285156 2.625-20.441406 8.691406-44.003906 8.6875-64.4375 0-20.542969-8.730469-43.921875-10.140626-65.347656-3.863282-.128907.039063-.257813.070313-.386719.109375v-63.777343c8.878906-3.171876 18.15625-4.777344 27.652344-4.777344 11.011718 0 22.074218 2.25 32.214844 6.5625 24.171874 10.277344 52 10.277344 76.167968 0 20.449219-8.691406 43.992188-8.691406 64.4375 0 24.167969 10.273437 52.007813 10.273437 76.171875 0 20.433594-8.6875 44.003907-8.683594 64.433594 0 27.464844 11.675781 55.105469 6.777344 82.359375-2.3125.023438-.007813.046875-.023438.074219-.03125 8.363281-2.789063 17.0625-4.21875 25.953125-4.21875 9.492187 0 18.773437 1.605468 27.652344 4.777344zm-413.566407-61.390626 175.007813-115.953124 175.003906 115.953124v48.476563c-.730469.289063-1.457031.585937-2.183594.894531-2.5625 1.089844-5.160156 2.042969-7.789062 2.863282-18.484375 5.757812-38.835938 4.707031-56.644532-2.863282-24.171874-10.277344-52.003906-10.273437-76.171874 0-20.453126 8.695313-43.984376 8.695313-64.433594 0-24.175782-10.277344-51.996094-10.277344-76.171875 0-20.449219 8.695313-43.984375 8.695313-64.433594 0-.722656-.308594-1.453125-.605468-2.183594-.894531zm0 0"/></svg>